<?xml version="1.0" encoding="UTF-8"?> <svg xmlns="http://www.w3.org/2000/svg" id="light" height="512" viewBox="0 0 24 24" width="512"><path d="m15 24c-2.757 0-5-2.243-5-5s2.243-5 5-5c.565 0 1.106.091 1.608.269.26.093.396.379.303.639s-.38.395-.639.303c-.394-.14-.821-.211-1.272-.211-2.206 0-4 1.794-4 4s1.794 4 4 4 4-1.794 4-4c0-.451-.071-.878-.211-1.272-.092-.26.043-.546.303-.639.261-.092.546.043.639.303.178.502.269 1.043.269 1.608 0 2.757-2.243 5-5 5z"></path><path d="m15 21c-1.103 0-2-.897-2-2 0-.533.208-1.036.586-1.414.195-.195.512-.195.707 0s.195.512 0 .707c-.189.19-.293.441-.293.707 0 .551.449 1 1 1 .266 0 .517-.104.707-.293.195-.195.512-.195.707 0s.195.512 0 .707c-.378.378-.881.586-1.414.586z"></path><path d="m15 19.5c-.128 0-.256-.049-.354-.146-.195-.195-.195-.512 0-.707l3.5-3.5c.195-.195.512-.195.707 0s.195.512 0 .707l-3.5 3.5c-.097.097-.225.146-.353.146z"></path><path d="m21 16h-2.5c-.276 0-.5-.224-.5-.5v-2.5c0-.133.053-.26.146-.354l2.5-2.5c.143-.144.358-.187.545-.108.187.077.309.26.309.462v2h2c.202 0 .385.122.462.309.078.187.035.402-.108.545l-2.5 2.5c-.094.093-.221.146-.354.146zm-2-1h1.793l1.5-1.5h-1.293c-.276 0-.5-.224-.5-.5v-1.293l-1.5 1.5z"></path><path d="m9 16.21c-.128 0-.256-.049-.354-.146l-3.57-3.57c-.188-.188-.196-.489-.019-.687l4.819-5.4c.031-.046.073-.089.12-.126 3.428-3.927 8.755-6.371 13.515-6.281.268.006.483.222.489.489.053 2.508-.591 5.183-1.865 7.734-.123.248-.422.35-.67.224-.247-.123-.348-.423-.224-.67 1.119-2.241 1.723-4.573 1.761-6.778-4.339.076-9.22 2.439-12.293 5.989-.021.024-.044.047-.07.066l-4.52 5.067 3.235 3.235c.195.195.195.512 0 .707-.098.098-.226.147-.354.147z"></path><path d="m6.541 11.412c-.023 0-.047-.001-.071-.005l-4.787-.686c-.188-.027-.345-.158-.404-.339-.059-.18-.011-.379.124-.512 2.373-2.373 5.615-3.715 8.928-3.715.276 0 .5.224.5.5s-.224.5-.5.5c-2.721 0-5.391.983-7.464 2.725l3.745.537c.273.04.463.292.424.566-.037.249-.251.429-.495.429z"></path><path d="m17.133 9.366c-.641 0-1.281-.244-1.768-.731-.974-.975-.974-2.561 0-3.536.975-.975 2.561-.975 3.536 0 .974.975.974 2.561 0 3.536-.488.488-1.128.731-1.768.731zm0-3.998c-.384 0-.769.146-1.061.438-.584.585-.584 1.537 0 2.122.585.584 1.537.583 2.122 0 .584-.585.584-1.537 0-2.122-.293-.291-.677-.438-1.061-.438zm1.414 2.914h.01z"></path><path d="m.5 24c-.131 0-.258-.051-.354-.146-.13-.13-.178-.321-.125-.497.164-.547 1.633-5.381 2.703-6.451 1.205-1.205 3.165-1.206 4.371 0 1.205 1.205 1.205 3.166 0 4.371-1.07 1.07-5.904 2.539-6.451 2.703-.048.013-.096.02-.144.02zm4.41-6.999c-.536 0-1.071.204-1.479.611-.577.578-1.537 3.159-2.171 5.128 1.968-.634 4.55-1.594 5.127-2.171.815-.815.815-2.142 0-2.957-.407-.407-.942-.611-1.477-.611z"></path></svg> 